<svg width="442" height="442" viewBox="0 0 442 442" fill="none" xmlns="http://www.w3.org/2000/svg">
<rect width="442" height="442" rx="143" fill="black"/>
<rect x="125" y="181.433" width="20.0709" height="20.0709" fill="#00E1FF"/>
<rect x="145.071" y="181.433" width="20.0709" height="20.0709" fill="#8A38F5"/>
<rect x="165.142" y="181.433" width="20.0709" height="20.0709" fill="#FF8000"/>
<rect x="185.213" y="181.433" width="20.0709" height="20.0709" fill="#D5FF00"/>
<rect x="205.283" y="181.433" width="20.0709" height="20.0709" fill="#FF2F00"/>
<rect x="185.213" y="201.504" width="20.0709" height="20.0709" fill="#00E1FF"/>
<rect x="205.283" y="201.504" width="20.0709" height="20.0709" fill="#8A38F5"/>
<rect x="125" y="201.504" width="20.0709" height="20.0709" fill="#FF8000"/>
<rect x="165.142" y="201.504" width="20.0709" height="20.0709" fill="#D5FF00"/>
<rect x="145.071" y="201.504" width="20.0709" height="20.0709" fill="#FF2F00"/>
<rect x="185.213" y="161.362" width="20.0709" height="20.0709" fill="#00E1FF"/>
<rect x="205.283" y="161.362" width="20.0709" height="20.0709" fill="#8A38F5"/>
<rect x="125" y="161.362" width="20.0709" height="20.0709" fill="#FF8000"/>
<rect x="145.071" y="161.362" width="20.0709" height="20.0709" fill="#D5FF00"/>
<rect x="165.142" y="161.362" width="20.0709" height="20.0709" fill="#FF2F00"/>
<rect x="225.354" y="261.716" width="20.0709" height="20.0709" transform="rotate(-180 225.354 261.716)" fill="#00E1FF"/>
<rect x="205.283" y="261.716" width="20.0709" height="20.0709" transform="rotate(-180 205.283 261.716)" fill="#8A38F5"/>
<rect x="185.213" y="261.716" width="20.0709" height="20.0709" transform="rotate(-180 185.213 261.716)" fill="#FF8000"/>
<rect x="165.142" y="261.716" width="20.0709" height="20.0709" transform="rotate(-180 165.142 261.716)" fill="#D5FF00"/>
<rect x="145.071" y="261.716" width="20.0709" height="20.0709" transform="rotate(-180 145.071 261.716)" fill="#FF2F00"/>
<rect x="165.142" y="241.646" width="20.0709" height="20.0709" transform="rotate(-180 165.142 241.646)" fill="#00E1FF"/>
<rect x="145.071" y="241.646" width="20.0709" height="20.0709" transform="rotate(-180 145.071 241.646)" fill="#8A38F5"/>
<rect x="225.354" y="241.646" width="20.0709" height="20.0709" transform="rotate(-180 225.354 241.646)" fill="#FF8000"/>
<rect x="185.213" y="241.646" width="20.0709" height="20.0709" transform="rotate(-180 185.213 241.646)" fill="#D5FF00"/>
<rect x="205.283" y="241.646" width="20.0709" height="20.0709" transform="rotate(-180 205.283 241.646)" fill="#FF2F00"/>
<rect x="165.142" y="281.788" width="20.0709" height="20.0709" transform="rotate(-180 165.142 281.788)" fill="#00E1FF"/>
<rect x="145.071" y="281.788" width="20.0709" height="20.0709" transform="rotate(-180 145.071 281.788)" fill="#8A38F5"/>
<rect x="225.354" y="281.788" width="20.0709" height="20.0709" transform="rotate(-180 225.354 281.788)" fill="#FF8000"/>
<rect x="205.283" y="281.788" width="20.0709" height="20.0709" transform="rotate(-180 205.283 281.788)" fill="#D5FF00"/>
<rect x="185.213" y="281.788" width="20.0709" height="20.0709" transform="rotate(-180 185.213 281.788)" fill="#FF2F00"/>
<rect x="145.512" y="281.788" width="20.0709" height="20.0709" fill="#D5FF00"/>
<rect x="145.512" y="301.858" width="20.0709" height="20.0709" fill="#00E1FF"/>
<rect x="165.583" y="342" width="20.0709" height="20.0709" transform="rotate(-180 165.583 342)" fill="#FF2F00"/>
<rect x="325.267" y="261.716" width="20.0709" height="20.0709" transform="rotate(-180 325.267 261.716)" fill="#00E1FF"/>
<rect x="305.197" y="261.716" width="20.0709" height="20.0709" transform="rotate(-180 305.197 261.716)" fill="#8A38F5"/>
<rect x="285.126" y="261.716" width="20.0709" height="20.0709" transform="rotate(-180 285.126 261.716)" fill="#FF8000"/>
<rect x="265.055" y="261.716" width="20.0709" height="20.0709" transform="rotate(-180 265.055 261.716)" fill="#D5FF00"/>
<rect x="244.984" y="261.716" width="20.0709" height="20.0709" transform="rotate(-180 244.984 261.716)" fill="#FF2F00"/>
<rect x="265.055" y="241.646" width="20.0709" height="20.0709" transform="rotate(-180 265.055 241.646)" fill="#00E1FF"/>
<rect x="244.984" y="241.646" width="20.0709" height="20.0709" transform="rotate(-180 244.984 241.646)" fill="#8A38F5"/>
<rect x="325.267" y="241.646" width="20.0709" height="20.0709" transform="rotate(-180 325.267 241.646)" fill="#FF8000"/>
<rect x="285.126" y="241.646" width="20.0709" height="20.0709" transform="rotate(-180 285.126 241.646)" fill="#D5FF00"/>
<rect x="305.197" y="241.646" width="20.0709" height="20.0709" transform="rotate(-180 305.197 241.646)" fill="#FF2F00"/>
<rect x="265.055" y="281.788" width="20.0709" height="20.0709" transform="rotate(-180 265.055 281.788)" fill="#00E1FF"/>
<rect x="244.984" y="281.788" width="20.0709" height="20.0709" transform="rotate(-180 244.984 281.788)" fill="#8A38F5"/>
<rect x="325.268" y="281.788" width="20.0709" height="20.0709" transform="rotate(-180 325.268 281.788)" fill="#FF8000"/>
<rect x="305.197" y="281.788" width="20.0709" height="20.0709" transform="rotate(-180 305.197 281.788)" fill="#D5FF00"/>
<rect x="285.126" y="281.788" width="20.0709" height="20.0709" transform="rotate(-180 285.126 281.788)" fill="#FF2F00"/>
<rect x="224.913" y="181.433" width="20.0709" height="20.0709" fill="#00E1FF"/>
<rect x="244.984" y="181.433" width="20.0709" height="20.0709" fill="#8A38F5"/>
<rect x="265.055" y="181.433" width="20.0709" height="20.0709" fill="#FF8000"/>
<rect x="125" y="141.512" width="20.0709" height="20.0709" fill="#00E1FF"/>
<rect x="145.071" y="141.512" width="20.0709" height="20.0709" fill="#8A38F5"/>
<rect x="165.142" y="141.512" width="20.0709" height="20.0709" fill="#FF8000"/>
<rect x="224.913" y="281.788" width="20.0709" height="20.0709" fill="#00E1FF"/>
<rect x="244.984" y="281.788" width="20.0709" height="20.0709" fill="#8A38F5"/>
<rect x="265.055" y="281.788" width="20.0709" height="20.0709" fill="#FF8000"/>
<rect x="285.126" y="181.433" width="20.0709" height="20.0709" fill="#D5FF00"/>
<rect x="305.197" y="181.433" width="20.0709" height="20.0709" fill="#FF2F00"/>
<rect x="285.126" y="201.504" width="20.0709" height="20.0709" fill="#00E1FF"/>
<rect x="305.197" y="201.504" width="20.0709" height="20.0709" fill="#8A38F5"/>
<rect x="224.913" y="201.504" width="20.0709" height="20.0709" fill="#FF8000"/>
<rect x="265.055" y="201.504" width="20.0709" height="20.0709" fill="#D5FF00"/>
<rect x="244.984" y="201.504" width="20.0709" height="20.0709" fill="#FF2F00"/>
<rect x="285.126" y="161.362" width="20.0709" height="20.0709" fill="#00E1FF"/>
<rect x="305.197" y="161.362" width="20.0709" height="20.0709" fill="#8A38F5"/>
<rect x="224.913" y="161.362" width="20.0709" height="20.0709" fill="#FF8000"/>
<rect x="244.984" y="161.362" width="20.0709" height="20.0709" fill="#D5FF00"/>
<rect x="265.055" y="161.362" width="20.0709" height="20.0709" fill="#FF2F00"/>
<rect x="244.764" y="121" width="20.0709" height="20.0709" fill="#FF2F00"/>
<rect x="244.764" y="141.071" width="20.0709" height="20.0709" fill="#8A38F5"/>
<rect x="264.393" y="141.071" width="20.0709" height="20.0709" fill="#FF8000"/>
</svg>
